<svg width="79" height="100" viewBox="0 0 79 100" fill="none" xmlns="http://www.w3.org/2000/svg">
<path d="M42.7285 4.352C42.5578 4.096 42.3018 3.712 41.9605 3.2C41.7045 2.60266 41.6618 2.21866 41.8325 2.048C42.0032 1.87733 42.2592 1.91999 42.6005 2.17599C43.0272 2.432 43.2832 2.60266 43.3685 2.688C44.9045 3.79733 46.3125 5.33333 47.5925 7.296C48.9578 9.25866 50.1525 11.4347 51.1765 13.824C52.2858 16.128 53.2672 18.56 54.1205 21.12C54.9738 23.68 55.6565 26.112 56.1685 28.416C57.4485 34.048 58.5152 39.5947 59.3685 45.056C60.3072 50.5173 60.7765 56.1493 60.7765 61.952C60.7765 62.1227 60.7765 62.6347 60.7765 63.488C60.8618 64.3413 60.7338 64.8533 60.3925 65.024C60.1365 64.8533 59.8378 64.4267 59.4965 63.744C59.2405 63.0613 59.0698 62.592 58.9845 62.336C57.9605 59.1787 57.0218 55.5947 56.1685 51.584C55.4005 47.488 54.6752 43.776 53.9925 40.448C53.4805 37.888 53.0112 35.456 52.5845 33.152C52.1578 30.7627 51.6458 28.4587 51.0485 26.24C50.5365 24.0213 49.8965 21.8027 49.1285 19.584C48.4458 17.28 47.5925 14.8907 46.5685 12.416C46.3978 12.0747 46.0992 11.4773 45.6725 10.624C45.3312 9.77066 44.9472 8.91733 44.5205 8.064C44.0938 7.21066 43.7098 6.44266 43.3685 5.75999C43.0272 4.99199 42.8138 4.52266 42.7285 4.352ZM73.4485 99.2C72.5098 98.688 71.8698 98.3467 71.5285 98.176C71.1872 98.0907 70.5472 97.7493 69.6085 97.152C67.5605 95.9573 65.6832 94.4213 63.9765 92.544C62.2698 90.5813 60.7338 88.448 59.3685 86.144C58.0032 83.84 56.7658 81.408 55.6565 78.848C54.6325 76.2027 53.7365 73.6 52.9685 71.04C51.2618 72.1493 49.2138 72.832 46.8245 73.088C44.5205 73.2587 42.3872 73.344 40.4245 73.344C37.9498 73.344 35.4752 73.2587 33.0005 73.088C30.6112 72.9173 28.1792 72.832 25.7045 72.832C23.3152 77.2693 21.0538 81.5787 18.9205 85.76C16.8725 89.856 15.2512 93.696 14.0565 97.28C14.0565 97.3653 14.0138 97.536 13.9285 97.792C13.8432 98.1333 13.7152 98.304 13.5445 98.304C13.2885 98.304 13.1605 98.0053 13.1605 97.408C13.1605 96.8107 13.1605 96.4267 13.1605 96.256C13.1605 92.8427 13.9712 89.0453 15.5925 84.864C17.2992 80.5973 19.1765 76.416 21.2245 72.32L19.3045 72.192C18.7925 73.3867 18.0672 75.0507 17.1285 77.184C16.2752 79.3173 15.4218 81.536 14.5685 83.84C13.8005 86.144 13.0752 88.3627 12.3925 90.496C11.7952 92.6293 11.4965 94.336 11.4965 95.616C11.4965 95.872 11.3685 96 11.1125 96C10.7712 96 10.5152 95.744 10.3445 95.232C10.1738 94.6347 10.0032 93.9947 9.8325 93.312C9.74716 92.6293 9.66183 91.9467 9.5765 91.264C9.5765 90.496 9.5765 89.984 9.5765 89.728C9.5765 86.7413 9.9605 83.6267 10.7285 80.384C11.4965 77.056 12.5205 74.0267 13.8005 71.296L12.1365 71.04C11.3685 72.9173 10.6432 74.7947 9.9605 76.672C9.27783 78.464 8.6805 80.3413 8.1685 82.304C8.1685 82.4747 8.12583 82.688 8.0405 82.944C7.95516 83.2 7.82716 83.2853 7.6565 83.2C7.48583 82.8587 7.35783 82.4747 7.2725 82.048C7.2725 81.536 7.2725 81.1093 7.2725 80.768C7.2725 77.184 7.9125 73.728 9.1925 70.4C9.61916 69.5467 10.0458 69.12 10.4725 69.12C12.2645 68.608 14.0565 68.3093 15.8485 68.224C17.7258 68.1387 19.6458 68.096 21.6085 68.096C25.8752 68.096 30.0992 68.4373 34.2805 69.12C38.4618 69.7173 42.6432 70.016 46.8245 70.016C48.8725 70.016 50.7498 69.8453 52.4565 69.504L52.2005 67.456C51.2618 67.712 50.2378 67.8827 49.1285 67.968C48.1045 68.0533 47.1232 68.096 46.1845 68.096C42.8565 68.096 39.4005 67.7547 35.8165 67.072C32.3178 66.3893 28.9472 65.5787 25.7045 64.64C25.5338 64.4693 25.1925 64.3413 24.6805 64.256C24.1685 64.0853 23.9125 63.872 23.9125 63.616C23.9125 63.4453 24.1685 63.3173 24.6805 63.232C25.1925 63.0613 25.5338 62.976 25.7045 62.976C26.8992 62.8907 28.0512 62.848 29.1605 62.848C30.3552 62.7627 31.5498 62.72 32.7445 62.72C34.7072 62.72 36.6698 62.7627 38.6325 62.848C40.5952 62.848 42.6005 62.848 44.6485 62.848C45.6725 62.848 46.7392 62.848 47.8485 62.848C48.9578 62.848 50.0245 62.8053 51.0485 62.72L50.7925 61.312H49.1285C45.0325 61.312 40.9365 60.928 36.8405 60.16C32.8298 59.392 28.7765 59.008 24.6805 59.008C21.1818 59.008 18.0672 59.4347 15.3365 60.288C12.6912 61.1413 10.3872 62.1227 8.4245 63.232C6.54716 64.3413 5.01116 65.4507 3.8165 66.56C2.62183 67.6693 1.7685 68.48 1.2565 68.992C1.08583 69.0773 1.0005 69.12 1.0005 69.12C0.915164 69.12 0.872498 69.0347 0.872498 68.864C0.872498 68.7787 0.915164 68.6933 1.0005 68.608C2.5365 65.6213 4.41383 63.1467 6.6325 61.184C8.85116 59.136 11.5818 57.6 14.8245 56.576C18.0672 49.664 21.3952 42.7947 24.8085 35.968C28.3072 29.1413 31.9765 22.4 35.8165 15.744C35.9018 15.5733 36.0725 15.3173 36.3285 14.976C36.5845 14.5493 36.8405 14.336 37.0965 14.336C37.1818 14.4213 37.2245 14.5067 37.2245 14.592V14.848C37.2245 15.5307 37.1818 16.0427 37.0965 16.384C35.4752 23.296 33.0858 29.952 29.9285 36.352C26.7712 42.752 23.5285 49.0667 20.2005 55.296L22.6325 55.168C22.8885 54.656 23.5285 53.5467 24.5525 51.84C25.6618 50.1333 26.8138 48.384 28.0085 46.592C29.2885 44.7147 30.4405 43.0507 31.4645 41.6C32.4885 40.064 33.1285 39.296 33.3845 39.296L33.5125 39.68C33.5125 40.1067 33.2565 41.0453 32.7445 42.496C32.2325 43.9467 31.6352 45.5253 30.9525 47.232C30.2698 48.9387 29.5872 50.56 28.9045 52.096C28.3072 53.5467 27.8805 54.5707 27.6245 55.168C28.1365 55.168 28.6485 55.2107 29.1605 55.296C29.6725 55.296 30.1845 55.296 30.6965 55.296C32.2325 52.224 33.8538 49.024 35.5605 45.696C37.3525 42.2827 38.8885 38.8267 40.1685 35.328C41.4485 31.8293 42.3018 28.288 42.7285 24.704C43.2405 21.12 42.9845 17.5787 41.9605 14.08C41.9605 14.5067 41.8325 15.36 41.5765 16.64C41.4058 17.92 41.1498 19.2853 40.8085 20.736C40.4672 22.1013 40.1258 23.3387 39.7845 24.448C39.4432 25.472 39.1018 25.984 38.7605 25.984C38.5045 25.984 38.3765 25.8133 38.3765 25.472C38.4618 25.1307 38.5045 24.9173 38.5045 24.832C38.5045 22.6133 38.6325 20.4373 38.8885 18.304C39.2298 16.0853 39.4005 13.8667 39.4005 11.648C39.4005 8.66133 38.9312 5.76 37.9925 2.94399C37.9925 2.85866 37.8645 2.51733 37.6085 1.92C37.3525 1.23733 37.4378 0.895996 37.8645 0.895996C38.0352 0.895996 38.3338 1.10933 38.7605 1.536C39.6138 2.38933 40.4245 3.54133 41.1925 4.992C42.0458 6.44267 42.8138 8.02133 43.4965 9.728C44.1792 11.3493 44.8192 12.9707 45.4165 14.592C46.0138 16.2133 46.4832 17.5787 46.8245 18.688C47.9338 22.3573 48.8298 26.0693 49.5125 29.824C50.2805 33.4933 50.9205 37.2053 51.4325 40.96C52.0298 44.6293 52.6272 48.3413 53.2245 52.096C53.8218 55.8507 54.5045 59.5627 55.2725 63.232C56.0405 66.816 56.9365 70.3147 57.9605 73.728C59.0698 77.1413 60.3925 80.384 61.9285 83.456C63.4645 86.528 65.2138 89.3867 67.1765 92.032C69.2245 94.592 71.5712 96.8533 74.2165 98.816C74.6432 99.2427 74.7712 99.4987 74.6005 99.584C74.5152 99.7547 74.1312 99.6267 73.4485 99.2ZM73.1925 88.32C73.2778 88.832 73.2352 89.088 73.0645 89.088C72.8938 89.0027 72.6805 88.832 72.4245 88.576C72.2538 88.32 72.0405 88.0213 71.7845 87.68C71.6138 87.3387 71.5285 87.1253 71.5285 87.04C69.4805 83.2853 67.8592 79.488 66.6645 75.648C65.4698 71.7227 64.5312 67.7973 63.8485 63.872C63.1658 59.8613 62.5685 55.8507 62.0565 51.84C61.6298 47.744 61.0752 43.6053 60.3925 39.424C59.7952 35.1573 58.9845 30.848 57.9605 26.496C56.9365 22.144 55.4858 17.7067 53.6085 13.184C53.5232 13.0133 53.3952 12.7147 53.2245 12.288C53.0538 11.8613 53.0538 11.6053 53.2245 11.52C53.3952 11.52 53.6085 11.648 53.8645 11.904L54.3765 12.416C56.2538 14.6347 57.9178 17.5787 59.3685 21.248C60.8192 24.9173 62.0992 28.8427 63.2085 33.024C64.3178 37.2053 65.2138 41.344 65.8965 45.44C66.6645 49.536 67.2618 53.12 67.6885 56.192C68.3712 61.056 69.0965 66.176 69.8645 71.552C70.6325 76.928 71.6138 82.0053 72.8085 86.784L73.1925 88.32ZM35.1765 55.808C37.6512 56.064 40.0832 56.3627 42.4725 56.704C44.9472 57.0453 47.4218 57.3013 49.8965 57.472C48.9578 52.9493 48.1472 48.4693 47.4645 44.032C46.7818 39.5947 46.1418 35.072 45.5445 30.464C44.4352 34.9013 42.8992 39.2107 40.9365 43.392C39.0592 47.5733 37.1392 51.712 35.1765 55.808ZM77.2885 97.792C75.5818 97.024 74.0885 96.2987 72.8085 95.616C71.5285 94.848 70.4192 93.824 69.4805 92.544C68.0298 90.5813 66.8778 88.6187 66.0245 86.656C65.2565 84.6933 64.6165 82.8587 64.1045 81.152C63.9338 80.4693 63.7632 79.7013 63.5925 78.848C63.5072 77.9947 63.5498 77.568 63.7205 77.568C64.0618 77.568 64.4885 78.1227 65.0005 79.232C65.5125 80.3413 65.9818 81.28 66.4085 82.048C67.6885 84.6933 69.3098 87.3813 71.2725 90.112C73.2352 92.7573 75.3685 94.9333 77.6725 96.64C78.3552 97.2373 78.5685 97.6213 78.3125 97.792C78.0565 97.9627 77.7152 97.9627 77.2885 97.792ZM1.6405 73.216C1.6405 73.216 1.55516 73.216 1.3845 73.216H1.2565C1.2565 72.96 1.29916 72.704 1.3845 72.448C1.46983 72.192 1.55516 71.936 1.6405 71.68C2.32316 70.2293 2.96316 69.1627 3.5605 68.48C4.24316 67.712 5.30983 66.9013 6.7605 66.048C7.61383 65.536 8.8085 65.024 10.3445 64.512C11.8805 64 13.1178 63.744 14.0565 63.744C14.2272 63.744 14.4405 63.7867 14.6965 63.872C15.0378 63.872 15.2085 64 15.2085 64.256C15.2085 64.512 14.7392 64.8533 13.8005 65.28C12.9472 65.7067 12.3925 66.0053 12.1365 66.176C8.89383 68.1387 6.5045 69.632 4.9685 70.656C3.4325 71.68 2.32316 72.5333 1.6405 73.216Z" fill="#E50010"/>
</svg>
