<svg width="221" height="220" viewBox="0 0 221 220" fill="none" xmlns="http://www.w3.org/2000/svg">
<path d="M107.187 21.9816L109.063 23.9728C109.275 24.2711 109.811 25.0942 110.668 26.442L113.537 30.4702C114.599 31.9621 115.563 33.4591 116.429 34.9612L118.66 38.0942C121.249 42.4462 123.438 46.6642 125.226 50.7483C127.202 54.668 128.883 58.6029 130.27 62.5531C131.853 66.4931 133.247 70.5976 134.453 74.8665C135.652 78.9811 136.96 83.3221 138.379 87.8894C140.262 93.8248 142.28 100.449 144.432 107.763C146.772 114.913 149.269 121.28 151.922 126.866C152.143 127.319 152.58 128.147 153.233 129.351C154.083 130.545 154.81 131.28 155.416 131.558C156.186 131.209 156.433 130.268 156.156 128.736L156.012 125.959C155.469 115.468 153.861 105.341 151.189 95.5794C148.713 85.8074 145.737 75.9065 142.263 65.8767C140.868 61.7723 139.068 57.4568 136.864 52.9302C134.659 48.4036 132.172 44.1236 129.402 40.0904C126.821 35.8927 123.866 32.1011 120.538 28.7154C117.407 25.3197 114.022 22.7105 110.381 20.888C110.176 20.7439 109.571 20.4659 108.565 20.0539C107.755 19.6318 107.161 19.5852 106.784 19.9141C106.407 20.243 106.541 20.9322 107.187 21.9816Z" fill="#E50010"/>
<path d="M186.847 173.554C187.24 173.534 187.314 173.066 187.07 172.15L186.042 169.419C182.844 160.922 180.109 151.859 177.837 142.231C175.566 132.603 173.416 123.433 171.389 114.721C170.119 109.218 168.408 102.809 166.256 95.4954C164.301 88.1714 161.85 80.7958 158.904 73.3684C155.959 65.941 152.644 58.9969 148.96 52.5359C145.276 46.0749 141.169 40.9507 136.639 37.1633L135.412 36.2987C134.798 35.8664 134.295 35.6604 133.902 35.6807C133.517 35.8553 133.541 36.3182 133.974 37.0692C134.407 37.8203 134.73 38.345 134.942 38.6434C139.688 46.5963 143.444 54.4457 146.209 62.1918C148.974 69.9379 151.245 77.6323 153.019 85.275C154.983 92.7532 156.647 100.17 158.013 107.524C159.568 114.714 161.318 121.894 163.266 129.064C165.205 136.079 167.734 143.064 170.852 150.018C173.963 156.818 178.051 163.49 183.119 170.034C183.127 170.189 183.343 170.564 183.768 171.161C184.389 171.748 184.909 172.262 185.326 172.705C185.939 173.137 186.446 173.42 186.847 173.554Z" fill="#E50010"/>
<path d="M182.373 181.88C185.384 182.962 188.891 184.095 192.892 185.28C193.891 185.538 194.677 185.497 195.25 185.158C195.824 184.819 195.296 184.15 193.669 183.152C188.204 180.341 183.088 176.661 178.321 172.112C173.546 167.41 169.561 162.743 166.366 158.113C165.312 156.775 164.143 155.134 162.86 153.19C161.578 151.245 160.543 150.293 159.757 150.334C159.364 150.354 159.306 151.131 159.582 152.663C160.055 154.186 160.52 155.554 160.977 156.768C162.316 159.792 163.961 163.033 165.913 166.49C168.062 169.937 170.898 173.348 174.422 176.723C176.704 178.925 179.354 180.644 182.373 181.88Z" fill="#E50010"/>
<path d="M20.3108 153.404L20.9003 153.374C22.4083 152.058 24.8827 150.383 28.3237 148.349C31.7646 146.314 37.1265 143.329 44.4093 139.394C44.9828 139.055 46.232 138.449 48.157 137.576C50.2784 136.693 51.3272 136.02 51.3032 135.557C51.2792 135.094 50.8743 134.883 50.0883 134.924C49.4909 134.8 48.9956 134.748 48.6027 134.769C46.4413 134.881 43.6162 135.491 40.1273 136.6C36.6384 137.709 33.9355 138.777 32.0186 139.804C28.7581 141.52 26.3779 143.113 24.8779 144.582C23.5664 145.888 22.1926 147.893 20.7565 150.597L20.2389 152.016C20.0664 152.489 19.9921 152.957 20.0161 153.42L20.3108 153.404Z" fill="#E50010"/>
<path fill-rule="evenodd" clip-rule="evenodd" d="M188.678 191.79C186.469 190.976 184.963 190.435 184.161 190.168C183.367 190.054 181.862 189.513 179.644 188.545C174.817 186.629 170.35 184.076 166.245 180.886C162.131 177.541 158.395 173.867 155.035 169.864C151.676 165.862 148.599 161.612 145.805 157.116C143.199 152.456 140.893 147.857 138.885 143.32C135.059 145.529 130.407 147.008 124.929 147.755C119.64 148.339 114.736 148.747 110.216 148.981C104.518 149.276 98.812 149.417 93.0979 149.403C87.5802 149.38 81.9723 149.515 76.2741 149.811C71.1878 158.118 66.3843 166.178 61.8635 173.992C57.5312 181.642 54.1574 188.778 51.7421 195.4C51.7501 195.554 51.6678 195.868 51.4953 196.341C51.3307 196.968 51.052 197.292 50.659 197.312C50.0695 197.343 49.7469 196.818 49.6909 195.738L49.5831 193.655C49.2636 187.484 50.7747 180.522 54.1166 172.769C57.6469 164.852 61.5783 157.068 65.9106 149.419L61.4776 149.416C60.4105 151.637 58.8961 154.732 56.9344 158.701C55.1692 162.66 53.4121 166.773 51.6629 171.04C50.1101 175.297 48.6477 179.395 47.2755 183.333C46.0998 187.261 45.5718 190.382 45.6917 192.697C45.7156 193.16 45.4329 193.406 44.8434 193.437C44.0574 193.477 43.444 193.045 43.0031 192.14C42.5542 191.08 42.1013 189.943 41.6444 188.73L40.8633 185.057L40.7195 182.28C40.4399 176.881 41.0325 171.204 42.4973 165.25C43.9542 159.141 46.0285 153.542 48.7202 148.453L44.8647 148.188C43.272 151.674 41.7776 155.155 40.3814 158.63C38.9773 161.951 37.7776 165.417 36.7824 169.026C36.7984 169.335 36.7201 169.725 36.5476 170.198C36.3751 170.671 36.0883 170.841 35.6874 170.707C35.2624 170.11 34.9317 169.431 34.6953 168.67L34.5755 166.356C34.24 159.876 35.3901 153.552 38.0259 147.382C38.9285 145.789 39.871 144.966 40.8534 144.915C44.9318 143.776 49.03 143.023 53.1483 142.655C57.4631 142.276 61.8801 141.97 66.3993 141.736C76.2238 141.228 85.9819 141.341 95.6738 142.077C105.358 142.658 115.014 142.7 124.641 142.201C129.357 141.957 133.664 141.425 137.562 140.604L136.781 136.932C134.643 137.507 132.301 137.937 129.755 138.224C127.405 138.5 125.149 138.694 122.988 138.806C115.325 139.203 107.335 138.998 99.0188 138.191C90.8989 137.374 83.0617 136.31 75.5073 135C75.0983 134.712 74.3004 134.521 73.1134 134.428C71.9185 134.18 71.3091 133.825 71.2851 133.362C71.2692 133.054 71.8466 132.792 73.0176 132.576C74.1805 132.207 74.9585 132.012 75.3515 131.991C78.0943 131.695 80.7429 131.48 83.2973 131.348C86.0402 131.051 88.787 130.832 91.5378 130.689C96.0571 130.455 100.58 130.298 105.108 130.219L118.96 129.501L126.328 129.12C128.883 128.988 131.335 128.783 133.685 128.507L132.963 125.992L129.132 126.19C119.7 126.679 110.233 126.473 100.73 125.573C91.4228 124.662 82.0536 124.451 72.6222 124.94C64.5661 125.357 57.4342 126.499 51.2265 128.368C45.2152 130.226 40.0019 132.275 35.5865 134.514C31.3676 136.744 27.9346 138.933 25.2876 141.081C22.6406 143.229 20.7517 144.796 19.6206 145.783L19.0432 146.045C18.8467 146.055 18.7404 145.906 18.7245 145.597C18.7165 145.443 18.8067 145.284 18.9952 145.119C22.2524 139.536 26.3435 134.838 31.2685 131.025C36.1855 127.058 42.3293 123.956 49.7 121.718C56.5196 108.835 63.5396 96.0185 70.76 83.2693C78.177 70.5099 85.9949 57.8845 94.2138 45.393C94.3944 45.0742 94.7634 44.5911 95.3209 43.9434C95.8704 43.1415 96.4399 42.7253 97.0294 42.6948C97.2339 42.8389 97.3401 42.9881 97.3481 43.1423L97.372 43.6052C97.4359 44.8394 97.3856 45.7702 97.2211 46.3974C94.1349 59.0873 89.2563 71.4058 82.5853 83.3531C75.9143 95.3004 69.0389 107.104 61.959 118.763L67.547 118.241C68.0885 117.285 69.4583 115.203 71.6564 111.995C74.051 108.778 76.5398 105.478 79.1229 102.095C81.8945 98.5486 84.3913 95.4029 86.6134 92.6581C88.8275 89.759 90.2292 88.2942 90.8187 88.2636L91.1494 88.9426C91.1893 89.714 90.6877 91.4416 89.6446 94.1254C88.6015 96.8091 87.3738 99.7345 85.9617 102.901C84.5496 106.068 83.1294 109.081 81.7013 111.939C80.4617 114.633 79.5751 116.536 79.0416 117.646C80.2205 117.585 81.4034 117.601 82.5903 117.694L86.1271 117.511C89.3764 111.774 92.8101 105.795 96.4283 99.575C100.235 93.1903 103.448 86.7589 106.068 80.2809C108.688 73.8029 110.321 67.2986 110.968 60.7681C111.812 54.2273 110.891 47.8553 108.205 41.652C108.245 42.4234 108.03 43.9814 107.561 46.3261C107.288 48.6607 106.826 51.1596 106.176 53.823C105.518 56.3322 104.847 58.6099 104.165 60.6562C103.475 62.5482 102.737 63.5146 101.951 63.5553C101.362 63.5858 101.051 63.2925 101.019 62.6754C101.184 62.0481 101.262 61.6574 101.254 61.5031C101.046 57.4919 101.137 53.5425 101.527 49.655C102.105 45.6031 102.291 41.5715 102.083 37.5603C101.803 32.1606 100.451 26.9711 98.0261 21.9918C98.0181 21.8376 97.6914 21.2357 97.046 20.1863C96.3926 18.9826 96.5572 18.3553 97.5396 18.3044C97.9326 18.2841 98.6403 18.6342 99.6626 19.3547C101.707 20.7957 103.682 22.7818 105.586 25.313C107.687 27.834 109.603 30.5966 111.335 33.6007C113.058 36.4506 114.684 39.3056 116.211 42.1656C117.738 45.0257 118.947 47.4382 119.836 49.4031C122.734 55.9048 125.145 62.5091 127.068 69.2159C129.18 75.7583 131.001 82.3931 132.532 89.1203C134.251 95.683 135.974 102.323 137.701 109.04C139.427 115.757 141.347 122.387 143.459 128.929C145.563 135.317 147.953 141.536 150.631 147.585C153.505 153.624 156.854 159.328 160.678 164.699C164.503 170.07 168.798 175.03 173.565 179.578C178.52 183.963 184.136 187.771 190.41 191.004C191.433 191.725 191.752 192.172 191.367 192.347C191.186 192.666 190.29 192.48 188.678 191.79ZM113.374 118.653C107.841 118.321 102.213 118.071 96.4907 117.903C100.627 110.263 104.66 102.552 108.591 94.7686C112.719 86.975 115.853 79.0008 117.992 70.8461C119.798 79.1059 121.695 87.2063 123.683 95.1473C125.67 103.088 127.956 111.091 130.541 119.156C124.827 119.143 119.105 118.975 113.374 118.653Z" fill="#E50010"/>
</svg>
